<svg width="293" height="72" viewBox="0 0 293 72" fill="none" xmlns="http://www.w3.org/2000/svg">
<path d="M45.1179 0.158203V71.5931" stroke="black" stroke-width="2" stroke-miterlimit="10"/>
<path d="M80.3028 33.2191C78.5078 34.4277 76.3269 35.032 73.763 35.032C71.7526 35.032 69.5089 34.2632 67.0288 32.7255L66.1313 34.3739H65.7454V26.5746H66.5142C66.942 28.6987 67.7109 30.4189 68.8238 31.7382C70.1072 33.2759 71.7526 34.0448 73.76 34.0448C75.555 34.0448 76.997 33.5871 78.089 32.6716C79.1779 31.7562 79.7254 30.5296 79.7254 28.9919C79.7254 26.8319 78.3133 25.0369 75.4922 23.6099C69.3772 20.5704 66.3227 17.6056 66.3227 14.7127C66.3227 13.7254 66.5202 12.81 66.9121 11.9663C67.304 11.1257 67.8485 10.3927 68.5485 9.77046C69.2456 9.1482 70.0653 8.66355 71.0047 8.31352C71.9441 7.96649 72.9912 7.79297 74.1459 7.79297C76.2401 7.79297 78.2266 8.49003 80.1083 9.88115L81.0058 8.28959H81.3918L81.649 15.2093H80.8144C80.2579 13.3784 79.5519 11.9334 78.6993 10.8714C77.6312 9.51617 76.1982 8.84005 74.4032 8.84005C72.9493 8.84005 71.7736 9.24393 70.8761 10.0487C69.9786 10.8534 69.5298 11.8796 69.5298 13.1241C69.5298 15.0298 71.8274 17.0432 76.4226 19.1643C78.8458 20.337 80.593 21.5456 81.658 22.7902C82.8068 24.1095 83.3812 25.6293 83.3812 27.3495C83.3812 29.8355 82.3551 31.7921 80.3028 33.2191Z" fill="black"/>
<path d="M92.2933 34.3731L86.3938 34.4269V33.5623L88.446 33.2183C89.4303 33.0717 89.9628 32.249 90.0496 30.7532V27.4653V13.9311C90.0496 11.9207 89.8581 10.715 89.4722 10.3141C89.173 9.91326 88.1259 9.56622 86.3309 9.27304V8.39648L91.9373 8.50717L98.0014 8.39648V9.27603C97.3163 9.27603 96.6342 9.32988 95.9491 9.44057C95.3508 9.51536 94.9649 9.73376 94.7943 10.0987L94.4084 11.0321C94.4084 11.2146 94.3965 11.3881 94.3755 11.5527C94.3546 11.7172 94.3217 11.8907 94.2798 12.0732L94.1511 15.4239V30.0322C94.1511 30.4719 94.214 31.0194 94.3426 31.6806C94.4712 32.3417 94.7046 32.7785 95.0486 32.9999C95.3897 33.1824 96.3739 33.3828 97.9984 33.6042V34.4269L92.2933 34.3731Z" fill="black"/>
<path d="M125.507 27.6726L125.698 31.9028C124.421 31.9028 123.018 32.2318 121.486 32.89C118.084 34.317 115.47 35.032 113.639 35.032C110.195 35.032 107.195 33.8414 104.646 31.463C103.285 30.1437 102.327 28.7525 101.774 27.2896C101.603 26.8139 101.412 25.9524 101.199 24.7078C101.113 24.2321 101.05 23.7565 101.008 23.2808C100.966 22.8051 100.945 22.3294 100.945 21.8538C100.945 17.9736 102.163 14.7127 104.601 12.077C107.207 9.21999 110.758 7.79297 115.245 7.79297C118.066 7.79297 120.63 8.61568 122.94 10.2641L123.709 8.45114H124.157L123.709 16.4149H122.94C122.94 14.2909 122.3 12.5168 121.016 11.0868C119.52 9.54908 117.597 8.78022 115.245 8.78022C111.954 8.78022 109.495 10.1354 107.871 12.8429C106.546 15.0777 105.884 17.9497 105.884 21.4649C105.884 24.7587 106.396 27.4691 107.422 29.5932C108.876 32.5579 111.269 34.0418 114.605 34.0418C119.134 34.0418 121.402 32.1182 121.402 28.2739C121.402 26.8828 121.166 25.9494 120.696 25.4737C120.31 24.9621 119.413 24.7048 118.004 24.7048V23.7714L123.269 23.8253L128.136 23.7714V24.7048C126.303 24.7078 125.426 25.6951 125.507 27.6726Z" fill="black"/>
<path d="M156.031 9.49391C155.732 9.6046 155.432 9.89779 155.133 10.3735L154.747 11.965V12.348C154.747 12.677 154.705 13.0271 154.619 13.392L154.49 17.4009V34.9769H153.401L147.693 27.9166L135.254 12.8057V27.0879C135.254 27.8238 135.263 28.467 135.287 29.0175C135.307 29.568 135.34 29.9928 135.382 30.286C135.382 30.8753 135.619 31.5724 136.088 32.3801C136.346 32.8947 136.749 33.2268 137.306 33.3733C137.862 33.5199 138.523 33.5947 139.292 33.5947V34.4234L134.482 34.3696L130.377 34.4234V33.5947C131.104 33.5947 131.723 33.502 132.238 33.3195C132.624 33.2088 132.965 33.0084 133.264 32.7122C133.521 32.3831 133.713 31.8656 133.842 31.1685C133.925 30.6539 133.991 30.1573 134.033 29.6786C134.075 29.2 134.096 28.7034 134.096 28.1888V11.4804C133.456 10.5619 132.833 9.95463 132.235 9.66144C131.723 9.32937 130.91 9.16483 129.8 9.16483V8.28229L133.776 8.39298L136.66 8.28229L153.332 28.6046V14.5438C153.332 14.1789 153.32 13.8378 153.299 13.5267C153.278 13.2155 153.245 12.9313 153.204 12.674C153.204 11.7586 153.033 11.0466 152.692 10.532C152.264 9.61657 151.175 9.15885 149.422 9.15885V8.2793L153.781 8.38999L158.014 8.2793V9.24561C157.078 9.25159 156.414 9.33236 156.031 9.49391Z" fill="black"/>
<path d="M181.744 34.3734L175.782 34.4272V33.6045C175.994 33.5686 176.263 33.5417 176.583 33.5207C176.904 33.5028 177.277 33.4579 177.705 33.3831C178.432 33.2006 178.794 32.7609 178.794 32.0638C178.794 31.2231 178.537 30.1043 178.025 28.7131L176.551 24.9227H166.804L165.329 28.5486C164.817 29.832 164.56 30.8911 164.56 31.7347C164.56 32.4677 164.922 32.9792 165.649 33.2724L167.764 33.6015V34.4242L163.402 34.3704L159.298 34.4242V33.6015C159.896 33.4908 160.494 33.3263 161.093 33.1079C161.479 32.9613 161.903 32.5784 162.376 31.9531C163.315 30.5979 164.407 28.3661 165.646 25.2518L172.377 7.67578H173.661L183.087 31.0736C183.644 32.4647 184.969 33.3083 187.063 33.5985V34.4212L181.744 34.3734ZM171.674 12.4594L167.249 23.7171H176.033L171.674 12.4594Z" fill="black"/>
<path d="M211.305 14.4368C211.305 12.4593 210.748 11.1041 209.638 10.3711C209.294 10.1168 208.678 9.93133 207.777 9.82064C207.308 9.74884 206.826 9.68303 206.335 9.62918C205.845 9.57533 205.363 9.56635 204.893 9.60225L203.484 9.6561C203.015 9.6561 202.662 9.71893 202.425 9.84757C202.189 9.97621 202.072 10.2604 202.072 10.7002V28.713C202.072 30.0682 202.177 31.0734 202.392 31.7346C202.434 32.1384 202.563 32.4137 202.778 32.5573C203.206 33.0329 204.424 33.38 206.434 33.6014V34.4241L199.859 34.3702L193.609 34.4241V33.6014C195.275 33.6014 196.418 33.3171 197.04 32.7487C197.66 32.1803 197.971 31.1661 197.971 29.7002V10.9156C197.971 10.1108 197.459 9.70696 196.433 9.70696H193.42C191.625 9.70696 190.429 9.96424 189.83 10.4758C189.017 11.1729 188.613 12.4892 188.613 14.4308H187.65V8.39062L190.213 8.50132L204.962 8.55517L212.017 8.39062L212.274 14.4308H211.305V14.4368Z" fill="black"/>
<path d="M239.71 9.65897C239.283 9.76966 238.918 10.1526 238.621 10.8107C238.535 11.068 238.46 11.3702 238.397 11.7172C238.334 12.0643 238.256 12.4592 238.173 12.8989L238.11 16.468V24.707C238.11 31.5908 234.604 35.0312 227.594 35.0312C220.755 35.0312 217.336 31.9917 217.336 25.9156V13.943C217.336 12.0014 217.144 10.8137 216.758 10.374C216.459 9.93419 215.391 9.56922 213.551 9.27603V8.39648L219.194 8.50717L225.156 8.39648V9.27902C224.6 9.27902 223.98 9.33587 223.295 9.44357C222.655 9.51836 222.248 9.73974 222.078 10.1047C221.991 10.2513 221.841 10.6013 221.629 11.1518L221.437 12.0912L221.375 15.4568V26.3225C221.375 26.6905 221.407 27.1303 221.47 27.6448C221.533 28.1594 221.608 28.7308 221.695 29.3561C221.778 29.9065 222.003 30.442 222.368 30.9566C222.73 31.4712 223.211 31.9319 223.81 32.3358C224.408 32.7396 225.102 33.0717 225.895 33.329C226.685 33.5863 227.573 33.7149 228.555 33.7149C231.633 33.7149 233.856 32.8563 235.223 31.1331C236.378 29.6702 236.955 27.3068 236.955 24.0488V16.471L236.764 12.6805C236.722 11.436 236.378 10.5924 235.737 10.1556C235.011 9.64401 234.026 9.38672 232.788 9.38672V8.50717L237.404 8.61786L241.829 8.50717V9.38672C240.841 9.38373 240.135 9.47647 239.71 9.65897Z" fill="black"/>
<path d="M266.513 34.3743L263.051 34.4281L254.073 23.335C253.475 22.6769 252.619 22.3478 251.51 22.3478V30.0364C251.51 30.4761 251.572 31.0236 251.701 31.6848C251.83 32.3429 252.063 32.7827 252.407 33.0041C252.748 33.1866 253.732 33.387 255.357 33.6084V34.4311L249.649 34.3773L243.749 34.4311V33.5665L245.801 33.2225C246.786 33.0759 247.318 32.2532 247.405 30.7514V27.4545V13.8904C247.405 11.877 247.214 10.6683 246.828 10.2645C246.528 9.86059 245.481 9.51356 243.686 9.22038V8.34083L249.466 8.45152L256.353 8.28698C258.713 8.25108 260.643 8.7447 262.145 9.77084C263.775 10.8688 264.589 12.6458 264.589 15.099C264.589 17.0406 263.862 18.5783 262.408 19.7121C261.167 20.6635 259.521 21.3037 257.472 21.6358L266.001 31.5771C266.429 32.0916 266.941 32.5284 267.539 32.8964C268.05 33.1537 268.736 33.378 269.591 33.5695V34.4341L266.513 34.3743ZM258.498 10.9226C257.43 9.89949 255.656 9.38492 253.176 9.38492L252.087 9.49561C251.701 9.6063 251.51 9.95334 251.51 10.5397V21.4144C254.289 21.4144 256.275 21.1212 257.472 20.5348C259.18 19.7301 260.036 18.2642 260.036 16.1401C260.036 13.7228 259.521 11.9847 258.498 10.9226Z" fill="black"/>
<path d="M292.193 28.9336C292.172 29.2627 292.16 29.6127 292.16 29.9777C292.16 30.3068 292.148 30.6359 292.127 30.9649C292.106 31.294 292.094 31.5693 292.094 31.7876C292.094 33.3254 292.053 34.2049 291.966 34.4233H270.489V33.5587L272.541 33.2147C273.525 33.0681 274.058 32.2424 274.144 30.7376V27.4408V13.8437C274.144 11.8243 273.953 10.6157 273.567 10.2118C273.268 9.8079 272.221 9.45788 270.426 9.1647V8.28516H289.982V14.2715H289.148C288.762 12.3299 288.142 11.0494 287.287 10.4272C286.431 9.80491 284.873 9.49378 282.605 9.49378H278.82C278.434 9.49378 278.243 9.82287 278.243 10.481V20.3655C282.479 20.3655 284.6 18.738 284.6 15.4771H285.489V16.1921L285.36 20.3655L285.552 25.8013H284.654C284.397 23.9704 283.715 22.7439 282.602 22.1216C281.746 21.6818 280.292 21.4634 278.24 21.4634V28.437C278.24 30.232 278.581 31.4765 279.266 32.1706C280.035 32.9753 281.423 33.3792 283.434 33.3792C286.039 33.3792 287.942 33.0681 289.142 32.4458C290.554 31.641 291.257 30.1931 291.257 28.1079H292.217C292.226 28.3323 292.214 28.6045 292.193 28.9336Z" fill="black"/>
<path d="M65.7454 42.0449H292.226" stroke="black" stroke-width="4" stroke-miterlimit="10"/>
<path d="M75.2499 53.0181C75.0883 52.4437 74.8729 51.8514 74.6755 51.5283C74.3883 51.0436 74.2088 50.9179 73.2215 50.9179H71.4265V59.6596C71.4265 61.0597 71.5701 61.2571 73.2754 61.3648V61.8674H68.0519V61.3648C69.7213 61.2571 69.8649 61.0776 69.8649 59.6596V50.9179H68.2314C67.2442 50.9179 66.957 51.0257 66.6518 51.5642C66.4364 51.9232 66.2929 52.354 66.0595 53.0181H65.521C65.6287 51.9232 65.7364 50.7923 65.7902 49.7871H66.2031C66.4723 50.2179 66.6698 50.2 67.1724 50.2H74.2806C74.7832 50.2 74.9268 50.1282 75.196 49.7871H75.6268C75.6268 50.6308 75.6986 51.9232 75.7884 52.9643L75.2499 53.0181Z" fill="black"/>
<path d="M94.241 50.7018C92.7511 50.8454 92.6075 50.9352 92.6075 52.443V59.6409C92.6075 61.1487 92.7691 61.2025 94.241 61.3641V61.8667H89.4304V61.3641C90.9202 61.1846 91.0638 61.1487 91.0638 59.6409V56.0509H84.925V59.6409C84.925 61.1307 85.0686 61.1846 86.5404 61.3641V61.8667H81.7478V61.3641C83.2017 61.2025 83.3633 61.1487 83.3633 59.6409V52.443C83.3633 50.9352 83.2017 50.8454 81.7478 50.7018V50.1992H86.5404V50.7018C85.1045 50.8275 84.925 50.9531 84.925 52.443V55.297H91.0638V52.443C91.0638 50.9531 90.8664 50.8275 89.4304 50.7018V50.1992H94.241V50.7018Z" fill="black"/>
<path d="M106.878 61.8641V61.3615C108.044 61.2179 108.188 61.0384 107.937 60.3563C107.703 59.6562 107.344 58.7587 106.967 57.6279H103.09C102.803 58.4356 102.534 59.1357 102.283 59.8716C101.888 61.0384 102.139 61.182 103.611 61.3615V61.8641H99.4644V61.3615C100.595 61.2179 100.882 61.0923 101.511 59.4768L105.226 50.053L105.801 49.9453C106.932 53.0148 108.17 56.4073 109.301 59.5127C109.875 61.0743 110.037 61.2179 111.311 61.3615V61.8641H106.878ZM105.083 52.2997C104.508 53.8434 103.898 55.4769 103.36 56.895H106.716L105.083 52.2997Z" fill="black"/>
<path d="M116.517 61.8647V61.3621C117.989 61.2006 118.132 61.1288 118.132 59.603V52.4769C118.132 50.9332 117.989 50.8614 116.517 50.6999V50.1973H121.327V50.6999C119.838 50.8614 119.694 50.9332 119.694 52.4769V59.603C119.694 61.1467 119.838 61.2006 121.327 61.3621V61.8647H116.517Z" fill="black"/>
<path d="M136.639 58.887C136.531 59.4434 135.993 61.3102 135.813 61.8667H127.466V61.3641C129.1 61.2025 129.243 61.1128 129.243 59.5871V52.4609C129.243 50.9352 129.064 50.8454 127.628 50.7018V50.1992H132.438V50.7018C131.002 50.8454 130.805 50.9172 130.805 52.4609V59.7665C130.805 60.8615 130.949 61.1128 131.972 61.1307C131.99 61.1307 133.282 61.1487 133.39 61.1487C134.305 61.1487 134.574 61.041 134.987 60.5922C135.436 60.1255 135.813 59.4075 136.082 58.7434L136.639 58.887Z" fill="black"/>
<path d="M149.473 61.8641V61.3615C150.64 61.2179 150.783 61.0384 150.532 60.3563C150.299 59.6562 149.94 58.7587 149.563 57.6279H145.686C145.398 58.4356 145.129 59.1357 144.878 59.8716C144.483 61.0384 144.734 61.182 146.206 61.3615V61.8641H142.06V61.3615C143.191 61.2179 143.478 61.0923 144.106 59.4768L147.822 50.053L148.396 49.9453C149.527 53.0148 150.765 56.4073 151.896 59.5127C152.471 61.0743 152.632 61.2179 153.907 61.3615V61.8641H149.473ZM147.678 52.2997C147.104 53.8434 146.493 55.4769 145.955 56.895H149.311L147.678 52.2997Z" fill="black"/>
<path d="M171.515 50.7018C170.367 50.8275 169.99 51.007 169.936 51.8327C169.918 52.4071 169.882 53.161 169.882 54.8303V62.0282H169.2L161.517 52.6404V57.1279C161.517 58.7434 161.571 59.5512 161.607 60.0717C161.643 60.9871 162.092 61.2564 163.384 61.3641V61.8667H159.022V61.3641C160.135 61.2743 160.566 61.0051 160.638 60.1255C160.692 59.5511 160.728 58.7434 160.728 57.1099V52.5327C160.728 52.0301 160.692 51.7429 160.369 51.348C160.027 50.8993 159.651 50.7916 158.771 50.7018V50.1992H161.463L169.074 59.228V54.8303C169.074 53.161 169.038 52.3891 168.985 51.8506C168.931 51.0429 168.518 50.7916 167.082 50.7018V50.1992H171.515V50.7018Z" fill="black"/>
<path d="M182.429 50.1992C184.96 50.1992 186.558 50.7018 187.671 51.7609C188.55 52.6225 189.196 53.879 189.196 55.6022C189.196 57.7023 188.335 59.4076 186.953 60.4487C185.588 61.4718 183.847 61.8667 181.639 61.8667H177.439V61.3641C178.983 61.2205 179.055 61.0948 179.055 59.6229V52.4609C179.055 50.9172 178.839 50.8454 177.439 50.7018V50.1992H182.429ZM180.616 59.4793C180.616 60.8256 181.191 61.2025 182.537 61.2025C185.768 61.2025 187.419 58.9947 187.419 55.8534C187.419 53.8969 186.755 52.4071 185.337 51.5455C184.511 51.0249 183.47 50.8275 182.268 50.8275C181.46 50.8275 181.029 50.9352 180.85 51.0788C180.688 51.1865 180.616 51.3839 180.616 52.084V59.4793Z" fill="black"/>
<path d="M1.61015 2.18919C1.55909 5.73021 1.53411 7.4426 1.49576 9.94781C1.38893 16.9917 1.38894 16.9794 1.60526 17.7515C1.7362 18.2091 2.23995 19.2646 2.50441 19.6375C3.34822 20.8011 4.72224 21.67 6.11798 21.9137C6.52003 21.9848 8.39819 22.0357 12.7368 22.0887C13.908 22.1063 16.1521 22.1367 17.7291 22.1568C19.3034 22.1787 20.7899 22.1681 21.032 22.1351C22.1796 21.9745 23.4458 21.3471 24.2711 20.522C25.1327 19.6644 25.7354 18.5417 25.9273 17.4279C25.9974 17.0183 26.0385 15.3983 26.0966 10.7633C26.1104 9.56171 26.1497 7.06413 26.1777 5.21357C26.1894 4.28162 26.2069 3.18482 26.2225 2.17188L1.61015 2.18919Z" fill="black" stroke="white" stroke-miterlimit="10"/>
<path d="M7.19921 26.0926C7.1848 26.1393 7.11216 26.6327 7.02699 27.1881C6.52169 30.504 5.67139 34.6425 4.82028 37.9157C3.93931 41.3242 3.18638 43.7819 1.97943 47.221C1.56015 48.4226 1.22139 49.4224 1.22612 49.4358C1.23465 49.4548 1.4383 49.5754 1.67145 49.7094C2.95623 50.4157 4.33819 51.5358 5.39314 52.7161C5.79706 53.1697 6.59319 54.196 6.88945 54.6427C7.93297 56.2223 8.82819 58.0569 9.57413 60.1513C10.3911 62.446 11.1513 65.3638 11.8671 68.917C11.9659 69.4328 12.0573 69.8504 12.0735 69.8562C12.0802 69.86 12.108 68.5965 12.1316 67.0471C12.1572 65.5005 12.1999 62.7676 12.2261 60.9857C12.3264 54.8338 12.3609 52.362 12.3873 50.4562L12.4119 48.5475L12.0967 48.4267C11.6845 48.2713 11.4999 48.1546 11.2299 47.8967C10.2344 46.9242 10.2963 45.3454 11.3676 44.4493C11.9825 43.9343 12.8091 43.7819 13.6013 44.0439C14.1031 44.2099 14.477 44.4815 14.8076 44.9177C15.0403 45.2251 15.0716 45.2909 15.1584 45.658C15.2802 46.1338 15.266 46.473 15.1029 46.9729C14.8792 47.649 14.2135 48.3049 13.5613 48.4778C13.4049 48.5155 13.2742 48.561 13.2685 48.5771C13.2656 48.5914 13.2408 49.7911 13.2221 51.2548C13.1665 54.994 13.1103 58.614 13.0534 62.115C12.9766 67.1587 12.9397 69.8754 12.9549 69.9107C12.9615 69.9269 13 69.7735 13.0452 69.5745C13.0857 69.3745 13.1926 68.8954 13.2812 68.5068C13.3698 68.1182 13.4594 67.7249 13.4787 67.6296C13.5481 67.2744 14.0347 65.4221 14.3278 64.3783C14.6161 63.3584 15.5948 60.5201 15.9505 59.6452C17.2175 56.595 18.8911 54.0708 20.8394 52.2591C21.7199 51.4484 22.7842 50.6847 23.8023 50.1373L24.4215 49.8091L24.3847 49.6727C24.3677 49.5974 24.2618 49.2512 24.1416 48.9022C24.029 48.5522 23.9127 48.1964 23.8843 48.1163C22.5544 43.9107 21.5401 40.0566 20.7546 36.1868C20.4889 34.8787 20.2564 33.6641 20.1756 33.1818C20.1493 33.0302 20.0713 32.5583 20.0009 32.1226C19.7134 30.4086 19.2168 26.8253 19.1829 26.2582C19.1849 26.2116 18.5589 26.1815 17.4516 26.1655C16.5006 26.149 13.8116 26.1102 11.477 26.0713C9.13951 26.0343 7.22895 26.0069 7.22132 26.0078C7.22036 26.0126 7.20978 26.0526 7.19921 26.0926Z" fill="black"/>
</svg>
