<svg width="24" height="24" viewBox="0 0 24 24" fill="none" xmlns="http://www.w3.org/2000/svg">
<path fill-rule="evenodd" clip-rule="evenodd" d="M17.586 1.99964C17.9611 1.62469 18.4697 1.41406 19 1.41406C19.5303 1.41406 20.0389 1.62469 20.414 1.99964L22 3.58564C22.3749 3.96069 22.5856 4.46931 22.5856 4.99964C22.5856 5.52996 22.3749 6.03858 22 6.41364L20.414 7.99964L16 3.58564L17.586 1.99964ZM14.586 4.99964L9.586 9.99964C9.2109 10.3746 9.00011 10.8832 9 11.4136V12.9996C9 13.5301 9.21071 14.0388 9.58579 14.4138C9.96086 14.7889 10.4696 14.9996 11 14.9996H12.586C13.1164 14.9995 13.625 14.7887 14 14.4136L19 9.41364L14.586 4.99964Z" fill="white"/>
<path d="M6 14H5C4.46957 14 3.96086 14.2107 3.58579 14.5858C3.21071 14.9609 3 15.4696 3 16C3 16.5304 3.21071 17.0391 3.58579 17.4142C3.96086 17.7893 4.46957 18 5 18H19C19.5304 18 20.0391 18.2107 20.4142 18.5858C20.7893 18.9609 21 19.4696 21 20C21 20.5304 20.7893 21.0391 20.4142 21.4142C20.0391 21.7893 19.5304 22 19 22H15" stroke="white" stroke-width="2.5" stroke-linecap="round" stroke-linejoin="round"/>
</svg>
