<svg width="32" height="32" viewBox="0 0 32 32" fill="none" xmlns="http://www.w3.org/2000/svg">
<path d="M23.8 15.5976L22.856 14.6549L9.656 27.8549H4V22.1976L19.0853 7.11222L26.628 14.6549C26.878 14.9049 27.0184 15.244 27.0184 15.5976C27.0184 15.9511 26.878 16.2902 26.628 16.5402L17.2 25.9696L15.3133 24.0829L23.8 15.5976ZM20.9707 12.7696L19.0853 10.8842L6.66667 23.3029V25.1882H8.552L20.9707 12.7696ZM24.7413 3.34155L28.5133 7.11222C28.6373 7.23605 28.7356 7.3831 28.8027 7.54497C28.8698 7.70683 28.9044 7.88033 28.9044 8.05555C28.9044 8.23077 28.8698 8.40428 28.8027 8.56614C28.7356 8.72801 28.6373 8.87506 28.5133 8.99889L26.6267 10.8842L20.9707 5.22689L22.856 3.34155C23.106 3.09159 23.4451 2.95117 23.7987 2.95117C24.1522 2.95117 24.4913 3.09159 24.7413 3.34155Z" fill="black"/>
</svg>
