<svg width="18" height="18" viewBox="0 0 18 18" fill="none" xmlns="http://www.w3.org/2000/svg">
<g clip-path="url(#clip0_2_260)">
<path d="M15.1199 2.4C13.4999 0.9 11.3699 0 8.99988 0C6.62988 0 4.49988 0.9 2.87988 2.4H15.1199ZM2.87988 15.6C4.49988 17.1 6.62988 18 8.99988 18C11.3699 18 13.4999 17.1 15.1199 15.6H2.87988Z" fill="#ED4C5C"/>
<path d="M0 9.00002C0 10.29 0.27 11.49 0.75 12.6H17.25C17.73 11.49 18 10.29 18 9.00002C18 7.71002 17.73 6.51002 17.25 5.40002H0.75C0.27 6.51002 0 7.71002 0 9.00002Z" fill="#2A5F9E"/>
<path d="M2.88022 15.5999H15.0902C15.9902 14.7599 16.7402 13.7399 17.2202 12.5999H0.720215C1.26021 13.7399 1.98021 14.7599 2.88022 15.5999ZM15.1202 2.3999H2.88022C1.98021 3.2399 1.23021 4.2599 0.750215 5.3999H17.2502C16.7402 4.2599 16.0202 3.2399 15.1202 2.3999Z" fill="#F9F9F9"/>
</g>
<defs>
<clipPath id="clip0_2_260">
<rect width="18" height="18" fill="white"/>
</clipPath>
</defs>
</svg>
