<svg width="28" height="28" viewBox="0 0 28 28" fill="none" xmlns="http://www.w3.org/2000/svg">
<path d="M23.9154 7H4.08203M21.9705 9.91667L21.4339 17.9667C21.2274 21.063 21.1247 22.6112 20.1155 23.555C19.1064 24.5 17.5535 24.5 14.4502 24.5H13.5472C10.4439 24.5 8.89103 24.5 7.88186 23.555C6.8727 22.6112 6.76886 21.063 6.56353 17.9667L6.02686 9.91667M11.082 12.8333L11.6654 18.6667M16.9154 12.8333L16.332 18.6667" stroke="#BEC1C4" stroke-width="1.5" stroke-linecap="round"/>
<path d="M7.58203 7H7.71036C8.17989 6.988 8.63486 6.83459 9.01578 6.55983C9.39669 6.28507 9.68583 5.90175 9.84536 5.46L9.88503 5.33983L9.9982 5.00033C10.095 4.70983 10.144 4.56517 10.2082 4.4415C10.3344 4.19929 10.5156 3.98999 10.7373 3.83035C10.9589 3.67071 11.2148 3.56517 11.4845 3.52217C11.621 3.5 11.7739 3.5 12.0795 3.5H15.9179C16.2235 3.5 16.3764 3.5 16.5129 3.52217C16.7826 3.56517 17.0385 3.67071 17.2601 3.83035C17.4818 3.98999 17.663 4.19929 17.7892 4.4415C17.8534 4.56517 17.9024 4.70983 17.9992 5.00033L18.1124 5.33983C18.2602 5.83132 18.566 6.26034 18.9823 6.56047C19.3987 6.8606 19.9023 7.01508 20.4154 7" stroke="#BEC1C4" stroke-width="1.5"/>
</svg>
