<svg width="20" height="20" viewBox="0 0 20 20" fill="none" xmlns="http://www.w3.org/2000/svg">
<path d="M10.0042 18.3366C5.40173 18.3366 1.6709 14.6058 1.6709 10.0033C1.6709 5.40076 5.40173 1.66992 10.0042 1.66992C14.6067 1.66992 18.3376 5.40076 18.3376 10.0033C18.3376 14.6058 14.6067 18.3366 10.0042 18.3366ZM7.08756 11.6699V13.3366H9.1709V15.0033H10.8376V13.3366H11.6709C12.2234 13.3366 12.7533 13.1171 13.144 12.7264C13.5347 12.3357 13.7542 11.8058 13.7542 11.2533C13.7542 10.7007 13.5347 10.1708 13.144 9.78012C12.7533 9.38942 12.2234 9.16992 11.6709 9.16992H8.33756C8.22706 9.16992 8.12108 9.12602 8.04294 9.04788C7.9648 8.96974 7.9209 8.86376 7.9209 8.75326C7.9209 8.64275 7.9648 8.53677 8.04294 8.45863C8.12108 8.38049 8.22706 8.33659 8.33756 8.33659H12.9209V6.66992H10.8376V5.00325H9.1709V6.66992H8.33756C7.78503 6.66992 7.25513 6.88942 6.86443 7.28012C6.47373 7.67082 6.25423 8.20072 6.25423 8.75326C6.25423 9.30579 6.47373 9.83569 6.86443 10.2264C7.25513 10.6171 7.78503 10.8366 8.33756 10.8366H11.6709C11.7814 10.8366 11.8874 10.8805 11.9655 10.9586C12.0437 11.0368 12.0876 11.1427 12.0876 11.2533C12.0876 11.3638 12.0437 11.4697 11.9655 11.5479C11.8874 11.626 11.7814 11.6699 11.6709 11.6699H7.08756Z" fill="url(#paint0_linear_185_8624)"/>
<defs>
<linearGradient id="paint0_linear_185_8624" x1="3.00423" y1="21.2532" x2="19.1362" y2="21.2818" gradientUnits="userSpaceOnUse">
<stop stop-color="#CCA359"/>
<stop offset="0.592798" stop-color="#F4CB83"/>
<stop offset="1" stop-color="#9F7326"/>
</linearGradient>
</defs>
</svg>
