<svg width="292" height="72" viewBox="0 0 292 72" fill="none" xmlns="http://www.w3.org/2000/svg">
<path d="M44.8918 0V71.4349" stroke="white" stroke-width="2" stroke-miterlimit="10"/>
<path d="M80.0767 33.0609C78.2817 34.2695 76.1008 34.8738 73.5369 34.8738C71.5265 34.8738 69.2828 34.105 66.8027 32.5673L65.9052 34.2157H65.5193V26.4164H66.2881C66.716 28.5405 67.4848 30.2607 68.5977 31.58C69.8811 33.1177 71.5265 33.8866 73.5339 33.8866C75.3289 33.8866 76.7709 33.4289 77.8629 32.5134C78.9518 31.598 79.4993 30.3714 79.4993 28.8337C79.4993 26.6737 78.0873 24.8787 75.2661 23.4517C69.1512 20.4122 66.0967 17.4474 66.0967 14.5545C66.0967 13.5672 66.2941 12.6518 66.686 11.8081C67.0779 10.9675 67.6224 10.2345 68.3225 9.61226C69.0195 8.98999 69.8393 8.50535 70.7786 8.15532C71.718 7.80829 72.7651 7.63477 73.9199 7.63477C76.014 7.63477 78.0005 8.33183 79.8823 9.72295L80.7798 8.13138H81.1657L81.423 15.0511H80.5883C80.0318 13.2202 79.3258 11.7752 78.4732 10.7132C77.4052 9.35796 75.9721 8.68185 74.1772 8.68185C72.7232 8.68185 71.5475 9.08572 70.65 9.89048C69.7525 10.6952 69.3037 11.7214 69.3037 12.9659C69.3037 14.8716 71.6013 16.885 76.1965 19.0061C78.6198 20.1788 80.3669 21.3874 81.4319 22.632C82.5807 23.9513 83.1551 25.4711 83.1551 27.1913C83.1551 29.6773 82.129 31.6339 80.0767 33.0609Z" fill="white"/>
<path d="M92.0672 34.2149L86.1677 34.2687V33.4041L88.22 33.0601C89.2042 32.9135 89.7367 32.0908 89.8235 30.595V27.3071V13.7729C89.8235 11.7625 89.632 10.5568 89.2461 10.1559C88.9469 9.75505 87.8999 9.40802 86.1049 9.11484V8.23828L91.7112 8.34897L97.7753 8.23828V9.11783C97.0902 9.11783 96.4081 9.17168 95.723 9.28237C95.1247 9.35716 94.7388 9.57555 94.5683 9.94054L94.1823 10.8739C94.1823 11.0564 94.1704 11.2299 94.1494 11.3945C94.1285 11.559 94.0956 11.7325 94.0537 11.915L93.9251 15.2657V29.874C93.9251 30.3137 93.9879 30.8612 94.1165 31.5224C94.2452 32.1835 94.4785 32.6203 94.8226 32.8417C95.1636 33.0242 96.1479 33.2246 97.7723 33.446V34.2687L92.0672 34.2149Z" fill="white"/>
<path d="M125.281 27.5144L125.472 31.7446C124.195 31.7446 122.792 32.0736 121.26 32.7318C117.858 34.1588 115.244 34.8738 113.413 34.8738C109.969 34.8738 106.969 33.6832 104.42 31.3048C103.059 29.9855 102.101 28.5943 101.548 27.1314C101.377 26.6557 101.186 25.7941 100.973 24.5496C100.887 24.0739 100.824 23.5983 100.782 23.1226C100.74 22.6469 100.719 22.1712 100.719 21.6956C100.719 17.8154 101.937 14.5545 104.375 11.9188C106.981 9.06179 110.532 7.63477 115.019 7.63477C117.84 7.63477 120.404 8.45748 122.714 10.1059L123.483 8.29293H123.931L123.483 16.2567H122.714C122.714 14.1327 122.074 12.3586 120.79 10.9286C119.294 9.39087 117.371 8.62202 115.019 8.62202C111.728 8.62202 109.269 9.97724 107.645 12.6847C106.32 14.9195 105.658 17.7915 105.658 21.3067C105.658 24.6005 106.17 27.3109 107.196 29.435C108.65 32.3997 111.043 33.8836 114.379 33.8836C118.908 33.8836 121.176 31.96 121.176 28.1157C121.176 26.7246 120.94 25.7912 120.47 25.3155C120.084 24.8039 119.187 24.5466 117.778 24.5466V23.6132L123.043 23.6671L127.91 23.6132V24.5466C126.076 24.5496 125.2 25.5369 125.281 27.5144Z" fill="white"/>
<path d="M155.805 9.33571C155.505 9.4464 155.206 9.73958 154.907 10.2153L154.521 11.8068V12.1898C154.521 12.5188 154.479 12.8689 154.393 13.2338L154.264 17.2427V34.8187H153.175L147.467 27.7584L135.028 12.6475V26.9297C135.028 27.6656 135.037 28.3088 135.06 28.8593C135.081 29.4098 135.114 29.8346 135.156 30.1277C135.156 30.7171 135.393 31.4142 135.862 32.2219C136.119 32.7365 136.523 33.0686 137.08 33.2151C137.636 33.3617 138.297 33.4365 139.066 33.4365V34.2652L134.256 34.2114L130.151 34.2652V33.4365C130.878 33.4365 131.497 33.3438 132.012 33.1613C132.398 33.0506 132.739 32.8502 133.038 32.554C133.295 32.2249 133.487 31.7073 133.615 31.0103C133.699 30.4957 133.765 29.9991 133.807 29.5204C133.849 29.0418 133.87 28.5452 133.87 28.0306V11.3222C133.23 10.4037 132.607 9.79642 132.009 9.50324C131.497 9.17117 130.684 9.00662 129.574 9.00662V8.12409L133.55 8.23478L136.434 8.12409L153.106 28.4464V14.3856C153.106 14.0206 153.094 13.6796 153.073 13.3685C153.052 13.0573 153.019 12.7731 152.977 12.5158C152.977 11.6004 152.807 10.8884 152.466 10.3738C152.038 9.45837 150.949 9.00064 149.196 9.00064V8.12109L153.555 8.23178L157.788 8.12109V9.0874C156.852 9.09339 156.188 9.17416 155.805 9.33571Z" fill="white"/>
<path d="M181.518 34.2152L175.556 34.269V33.4463C175.768 33.4104 176.037 33.3835 176.357 33.3625C176.677 33.3446 177.051 33.2997 177.479 33.2249C178.206 33.0424 178.568 32.6027 178.568 31.9056C178.568 31.0649 178.311 29.9461 177.799 28.5549L176.324 24.7645H166.578L165.103 28.3904C164.591 29.6738 164.334 30.7329 164.334 31.5765C164.334 32.3095 164.696 32.821 165.423 33.1142L167.538 33.4433V34.266L163.176 34.2122L159.072 34.266V33.4433C159.67 33.3326 160.268 33.1681 160.867 32.9497C161.252 32.8031 161.677 32.4202 162.15 31.7949C163.089 30.4397 164.181 28.2079 165.42 25.0936L172.151 7.51758H173.434L182.861 30.9154C183.418 32.3065 184.743 33.1501 186.837 33.4403V34.263L181.518 34.2152ZM171.448 12.3012L167.023 23.5589H175.807L171.448 12.3012Z" fill="white"/>
<path d="M211.079 14.2786C211.079 12.3011 210.522 10.9459 209.412 10.2129C209.068 9.95862 208.452 9.77313 207.551 9.66244C207.082 9.59064 206.6 9.52482 206.109 9.47097C205.619 9.41712 205.137 9.40815 204.667 9.44405L203.258 9.4979C202.789 9.4979 202.436 9.56073 202.199 9.68937C201.963 9.81801 201.846 10.1022 201.846 10.542V28.5548C201.846 29.91 201.951 30.9152 202.166 31.5764C202.208 31.9802 202.337 32.2555 202.552 32.3991C202.98 32.8747 204.198 33.2218 206.208 33.4432V34.2659L199.632 34.212L193.383 34.2659V33.4432C195.049 33.4432 196.192 33.1589 196.814 32.5905C197.434 32.0221 197.745 31.0079 197.745 29.542V10.7574C197.745 9.95263 197.233 9.54876 196.207 9.54876H193.194C191.399 9.54876 190.203 9.80604 189.604 10.3176C188.791 11.0147 188.387 12.331 188.387 14.2726H187.423V8.23242L189.987 8.34312L204.736 8.39697L211.791 8.23242L212.048 14.2726H211.079V14.2786Z" fill="white"/>
<path d="M239.484 9.50076C239.057 9.61145 238.692 9.99438 238.395 10.6525C238.309 10.9098 238.234 11.212 238.171 11.559C238.108 11.9061 238.03 12.301 237.947 12.7407L237.884 16.3098V24.5488C237.884 31.4326 234.378 34.873 227.368 34.873C220.529 34.873 217.11 31.8335 217.11 25.7574V13.7848C217.11 11.8432 216.918 10.6555 216.532 10.2158C216.233 9.77599 215.165 9.41101 213.325 9.11783V8.23828L218.968 8.34897L224.93 8.23828V9.12082C224.373 9.12082 223.754 9.17766 223.069 9.28536C222.429 9.36015 222.022 9.58153 221.851 9.94652C221.765 10.0931 221.615 10.4431 221.403 10.9936L221.211 11.933L221.148 15.2986V26.1643C221.148 26.5323 221.181 26.9721 221.244 27.4866C221.307 28.0012 221.382 28.5726 221.469 29.1979C221.552 29.7483 221.777 30.2838 222.142 30.7984C222.504 31.313 222.985 31.7737 223.584 32.1775C224.182 32.5814 224.876 32.9135 225.669 33.1708C226.459 33.4281 227.347 33.5567 228.328 33.5567C231.407 33.5567 233.63 32.6981 234.997 30.9749C236.152 29.512 236.729 27.1486 236.729 23.8906V16.3128L236.538 12.5223C236.496 11.2778 236.152 10.4342 235.511 9.99738C234.784 9.48581 233.8 9.22852 232.562 9.22852V8.34897L237.178 8.45966L241.602 8.34897V9.22852C240.615 9.22553 239.909 9.31827 239.484 9.50076Z" fill="white"/>
<path d="M266.287 34.2161L262.825 34.2699L253.847 23.1768C253.249 22.5187 252.393 22.1896 251.283 22.1896V29.8781C251.283 30.3179 251.346 30.8654 251.475 31.5266C251.604 32.1847 251.837 32.6245 252.181 32.8459C252.522 33.0284 253.506 33.2288 255.131 33.4502V34.2729L249.423 34.2191L243.523 34.2729V33.4083L245.575 33.0643C246.56 32.9177 247.092 32.095 247.179 30.5932V27.2963V13.7322C247.179 11.7188 246.987 10.5101 246.602 10.1063C246.302 9.70239 245.255 9.35536 243.46 9.06218V8.18263L249.24 8.29332L256.127 8.12878C258.487 8.09288 260.417 8.5865 261.919 9.61264C263.549 10.7106 264.363 12.4876 264.363 14.9408C264.363 16.8824 263.636 18.4201 262.182 19.5539C260.941 20.5053 259.295 21.1455 257.246 21.4776L265.775 31.4189C266.203 31.9334 266.714 32.3702 267.313 32.7382C267.824 32.9955 268.509 33.2198 269.365 33.4113V34.2759L266.287 34.2161ZM258.272 10.7644C257.204 9.74128 255.43 9.22671 252.95 9.22671L251.861 9.3374C251.475 9.44809 251.283 9.79513 251.283 10.3815V21.2562C254.063 21.2562 256.049 20.963 257.246 20.3766C258.954 19.5719 259.81 18.106 259.81 15.9819C259.81 13.5646 259.295 11.8265 258.272 10.7644Z" fill="white"/>
<path d="M291.967 28.7754C291.946 29.1045 291.934 29.4545 291.934 29.8195C291.934 30.1486 291.922 30.4777 291.901 30.8067C291.88 31.1358 291.868 31.411 291.868 31.6294C291.868 33.1672 291.826 34.0467 291.74 34.2651H270.263V33.4005L272.315 33.0565C273.299 32.9099 273.832 32.0842 273.918 30.5794V27.2826V13.6855C273.918 11.6661 273.727 10.4574 273.341 10.0536C273.042 9.6497 271.995 9.29968 270.2 9.00649V8.12695H289.756V14.1133H288.922C288.536 12.1717 287.916 10.8912 287.061 10.269C286.205 9.64671 284.646 9.33558 282.379 9.33558H278.594C278.208 9.33558 278.017 9.66467 278.017 10.3228V20.2073C282.253 20.2073 284.374 18.5798 284.374 15.3189H285.263V16.0339L285.134 20.2073L285.326 25.6431H284.428C284.171 23.8122 283.489 22.5856 282.376 21.9634C281.52 21.5236 280.066 21.3052 278.014 21.3052V28.2788C278.014 30.0738 278.355 31.3183 279.04 32.0124C279.809 32.8171 281.197 33.221 283.207 33.221C285.813 33.221 287.716 32.9099 288.916 32.2876C290.328 31.4828 291.031 30.0349 291.031 27.9497H291.991C292 28.1741 291.988 28.4463 291.967 28.7754Z" fill="white"/>
<path d="M65.5193 41.8867H292" stroke="white" stroke-width="4" stroke-miterlimit="10"/>
<path d="M75.0238 52.8599C74.8623 52.2855 74.6469 51.6932 74.4494 51.3701C74.1622 50.8854 73.9827 50.7597 72.9955 50.7597H71.2005V59.5014C71.2005 60.9015 71.3441 61.0989 73.0493 61.2066V61.7092H67.8259V61.2066C69.4952 61.0989 69.6388 60.9194 69.6388 59.5014V50.7597H68.0054C67.0181 50.7597 66.7309 50.8675 66.4258 51.406C66.2104 51.765 66.0668 52.1957 65.8334 52.8599H65.2949C65.4026 51.7649 65.5103 50.6341 65.5642 49.6289H65.977C66.2463 50.0597 66.4437 50.0418 66.9463 50.0418H74.0545C74.5571 50.0418 74.7007 49.97 74.97 49.6289H75.4008C75.4008 50.4726 75.4726 51.765 75.5623 52.806L75.0238 52.8599Z" fill="white"/>
<path d="M94.0149 50.5436C92.5251 50.6872 92.3815 50.777 92.3815 52.2848V59.4827C92.3815 60.9905 92.543 61.0443 94.0149 61.2059V61.7085H89.2043V61.2059C90.6942 61.0264 90.8378 60.9905 90.8378 59.4827V55.8927H84.6989V59.4827C84.6989 60.9725 84.8425 61.0264 86.3144 61.2059V61.7085H81.5217V61.2059C82.9757 61.0443 83.1372 60.9905 83.1372 59.4827V52.2848C83.1372 50.777 82.9757 50.6872 81.5217 50.5436V50.041H86.3144V50.5436C84.8784 50.6693 84.6989 50.7949 84.6989 52.2848V55.1388H90.8378V52.2848C90.8378 50.7949 90.6403 50.6693 89.2043 50.5436V50.041H94.0149V50.5436Z" fill="white"/>
<path d="M106.652 61.7059V61.2033C107.818 61.0597 107.962 60.8802 107.711 60.1981C107.477 59.498 107.118 58.6005 106.741 57.4697H102.864C102.577 58.2774 102.308 58.9775 102.056 59.7134C101.662 60.8802 101.913 61.0238 103.385 61.2033V61.7059H99.2383V61.2033C100.369 61.0597 100.656 60.9341 101.285 59.3186L105 49.8948L105.575 49.7871C106.705 52.8566 107.944 56.2491 109.075 59.3545C109.649 60.9161 109.811 61.0597 111.085 61.2033V61.7059H106.652ZM104.857 52.1415C104.282 53.6852 103.672 55.3187 103.133 56.7367H106.49L104.857 52.1415Z" fill="white"/>
<path d="M116.291 61.7065V61.2039C117.763 61.0424 117.906 60.9706 117.906 59.4448V52.3187C117.906 50.775 117.763 50.7032 116.291 50.5417V50.0391H121.101V50.5417C119.612 50.7032 119.468 50.775 119.468 52.3187V59.4448C119.468 60.9885 119.612 61.0424 121.101 61.2039V61.7065H116.291Z" fill="white"/>
<path d="M136.413 58.7288C136.305 59.2852 135.766 61.152 135.587 61.7085H127.24V61.2059C128.874 61.0443 129.017 60.9546 129.017 59.4288V52.3027C129.017 50.777 128.838 50.6872 127.402 50.5436V50.041H132.212V50.5436C130.776 50.6872 130.579 50.759 130.579 52.3027V59.6083C130.579 60.7033 130.723 60.9546 131.746 60.9725C131.764 60.9725 133.056 60.9905 133.164 60.9905C134.079 60.9905 134.348 60.8828 134.761 60.434C135.21 59.9673 135.587 59.2493 135.856 58.5852L136.413 58.7288Z" fill="white"/>
<path d="M149.247 61.7059V61.2033C150.414 61.0597 150.557 60.8802 150.306 60.1981C150.073 59.498 149.714 58.6005 149.337 57.4697H145.46C145.172 58.2774 144.903 58.9775 144.652 59.7134C144.257 60.8802 144.508 61.0238 145.98 61.2033V61.7059H141.834V61.2033C142.964 61.0597 143.252 60.9341 143.88 59.3186L147.596 49.8948L148.17 49.7871C149.301 52.8566 150.539 56.2491 151.67 59.3545C152.245 60.9161 152.406 61.0597 153.681 61.2033V61.7059H149.247ZM147.452 52.1415C146.878 53.6852 146.267 55.3187 145.729 56.7367H149.085L147.452 52.1415Z" fill="white"/>
<path d="M171.289 50.5436C170.141 50.6693 169.764 50.8488 169.71 51.6745C169.692 52.2488 169.656 53.0028 169.656 54.6721V61.87H168.974L161.291 52.4822V56.9697C161.291 58.5852 161.345 59.3929 161.381 59.9135C161.417 60.8289 161.866 61.0982 163.158 61.2059V61.7085H158.796V61.2059C159.909 61.1161 160.34 60.8469 160.412 59.9673C160.466 59.3929 160.501 58.5852 160.501 56.9517V52.3745C160.501 51.8719 160.466 51.5847 160.142 51.1898C159.801 50.7411 159.424 50.6334 158.545 50.5436V50.041H161.237L168.848 59.0698V54.6721C168.848 53.0028 168.812 52.2309 168.758 51.6924C168.705 50.8847 168.292 50.6334 166.856 50.5436V50.041H171.289V50.5436Z" fill="white"/>
<path d="M182.203 50.041C184.734 50.041 186.332 50.5436 187.444 51.6027C188.324 52.4643 188.97 53.7208 188.97 55.444C188.97 57.5441 188.109 59.2493 186.726 60.2904C185.362 61.3136 183.621 61.7085 181.413 61.7085H177.213V61.2059C178.757 61.0623 178.828 60.9366 178.828 59.4647V52.3027C178.828 50.759 178.613 50.6872 177.213 50.5436V50.041H182.203ZM180.39 59.3211C180.39 60.6674 180.965 61.0443 182.311 61.0443C185.542 61.0443 187.193 58.8365 187.193 55.6952C187.193 53.7387 186.529 52.2489 185.111 51.3873C184.285 50.8667 183.244 50.6693 182.041 50.6693C181.234 50.6693 180.803 50.777 180.623 50.9206C180.462 51.0283 180.39 51.2257 180.39 51.9258V59.3211Z" fill="white"/>
<path d="M1.38408 2.03098C1.33302 5.57201 1.30804 7.2844 1.26969 9.7896C1.16286 16.8335 1.16287 16.8212 1.37918 17.5933C1.51013 18.0509 2.01388 19.1064 2.27833 19.4793C3.12215 20.6429 4.49616 21.5118 5.8919 21.7555C6.29395 21.8266 8.17212 21.8775 12.5107 21.9305C13.6819 21.9481 15.926 21.9785 17.5031 21.9986C19.0773 22.0205 20.5639 22.0099 20.806 21.9769C21.9535 21.8163 23.2197 21.1889 24.045 20.3638C24.9066 19.5062 25.5093 18.3835 25.7012 17.2697C25.7713 16.8601 25.8124 15.2401 25.8705 10.6051C25.8844 9.40351 25.9237 6.90593 25.9517 5.05537C25.9633 4.12342 25.9809 3.02662 25.9964 2.01367L1.38408 2.03098Z" fill="white" stroke="white" stroke-miterlimit="10"/>
<path d="M6.97313 25.9344C6.95873 25.9811 6.88609 26.4745 6.80091 27.0299C6.29562 30.3458 5.44531 34.4843 4.59421 37.7575C3.71323 41.166 2.96031 43.6237 1.75336 47.0628C1.33408 48.2644 0.995316 49.2642 1.00005 49.2776C1.00858 49.2966 1.21222 49.4172 1.44537 49.5512C2.73016 50.2575 4.11211 51.3776 5.16707 52.5579C5.57099 53.0115 6.36712 54.0378 6.66337 54.4845C7.7069 56.0641 8.60211 57.8987 9.34806 59.9931C10.165 62.2878 10.9252 65.2056 11.641 68.7588C11.7398 69.2746 11.8313 69.6922 11.8475 69.698C11.8541 69.7018 11.8819 68.4383 11.9056 66.8889C11.9312 65.3423 11.9739 62.6094 12 60.8275C12.1004 54.6756 12.1348 52.2038 12.1612 50.298L12.1858 48.3893L11.8706 48.2685C11.4584 48.1131 11.2738 47.9964 11.0038 47.7385C10.0084 46.766 10.0702 45.1872 11.1416 44.2911C11.7565 43.7761 12.583 43.6237 13.3752 43.8857C13.877 44.0517 14.2509 44.3232 14.5815 44.7595C14.8142 45.0669 14.8455 45.1327 14.9323 45.4998C15.0541 45.9756 15.04 46.3148 14.8768 46.8147C14.6531 47.4908 13.9874 48.1467 13.3352 48.3196C13.1788 48.3573 13.0482 48.4028 13.0424 48.4189C13.0395 48.4332 13.0147 49.6329 12.996 51.0966C12.9405 54.8358 12.8842 58.4558 12.8273 61.9568C12.7506 67.0005 12.7136 69.7172 12.7288 69.7525C12.7354 69.7687 12.7739 69.6153 12.8192 69.4163C12.8597 69.2163 12.9666 68.7372 13.0552 68.3486C13.1438 67.96 13.2333 67.5667 13.2526 67.4714C13.322 67.1162 13.8086 65.2639 14.1017 64.2201C14.39 63.2002 15.3688 60.3619 15.7244 59.487C16.9914 56.4368 18.665 53.9126 20.6133 52.1009C21.4938 51.2902 22.5581 50.5265 23.5762 49.9791L24.1955 49.6509L24.1586 49.5145C24.1416 49.4392 24.0357 49.093 23.9155 48.744C23.803 48.394 23.6866 48.0382 23.6582 47.9581C22.3284 43.7525 21.3141 39.8984 20.5285 36.0286C20.2629 34.7205 20.0304 33.5059 19.9496 33.0235C19.9232 32.872 19.8453 32.4001 19.7748 31.9644C19.4873 30.2504 18.9907 26.6671 18.9568 26.1C18.9588 26.0533 18.3328 26.0233 17.2256 26.0073C16.2746 25.9908 13.5855 25.952 11.2509 25.9131C8.91344 25.8761 7.00287 25.8487 6.99525 25.8496C6.99428 25.8544 6.98371 25.8944 6.97313 25.9344Z" fill="white"/>
</svg>
