<svg width="20" height="20" viewBox="0 0 20 20" fill="none" xmlns="http://www.w3.org/2000/svg">
<path d="M9.8125 3C14.1201 3 17.625 5.86518 17.625 9.38763C17.625 10.7976 17.083 12.0669 15.9502 13.3174C14.3115 15.2184 10.6465 17.5335 9.8125 17.8877C9.00195 18.2321 9.0957 17.6939 9.13281 17.4814L9.13574 17.4637L9.24707 16.7897C9.27344 16.589 9.30078 16.2771 9.22168 16.0783C9.13379 15.8589 8.78809 15.7448 8.53418 15.6897C4.7793 15.1908 2 12.545 2 9.38763C2 5.86518 5.50586 3 9.8125 3ZM6.9043 10.5624H5.41504V7.83893C5.41504 7.7984 5.39912 7.7595 5.37076 7.73075C5.34241 7.70199 5.30391 7.6857 5.26367 7.68544H4.71484C4.69484 7.68544 4.67503 7.68941 4.65654 7.69713C4.63806 7.70484 4.62127 7.71615 4.60712 7.7304C4.59297 7.74465 4.58175 7.76157 4.5741 7.78019C4.56644 7.79882 4.5625 7.81878 4.5625 7.83893V11.2689C4.5625 11.3092 4.5791 11.3476 4.60547 11.3742L4.60742 11.3771L4.60938 11.3791C4.6377 11.4065 4.67555 11.4217 4.71484 11.4214H6.9043C6.98828 11.4214 7.05566 11.3525 7.05566 11.2679V10.7169C7.05579 10.6968 7.05198 10.6768 7.04444 10.6581C7.0369 10.6394 7.02579 10.6224 7.01173 10.6081C6.99768 10.5937 6.98096 10.5823 6.96252 10.5745C6.94409 10.5667 6.9243 10.5626 6.9043 10.5624ZM7.67676 7.68544C7.63635 7.68544 7.5976 7.70161 7.56903 7.7304C7.54046 7.75918 7.52441 7.79823 7.52441 7.83893V11.2689C7.52441 11.3535 7.59277 11.4214 7.67676 11.4214H8.22559C8.30957 11.4214 8.37695 11.3525 8.37695 11.2689V7.83893C8.37695 7.7984 8.36104 7.7595 8.33268 7.73075C8.30432 7.70199 8.26582 7.6857 8.22559 7.68544H7.67676ZM11.4492 7.68544C11.4088 7.68544 11.3701 7.70161 11.3415 7.7304C11.3129 7.75918 11.2969 7.79823 11.2969 7.83893V9.87566L9.7373 7.75432C9.73336 7.74915 9.72912 7.74422 9.72461 7.73956C9.72152 7.73611 9.71826 7.73185 9.71484 7.72873L9.71191 7.72578C9.70857 7.72256 9.70497 7.7196 9.70117 7.71693L9.69531 7.71299L9.69238 7.71102C9.69086 7.70988 9.68922 7.70889 9.6875 7.70807L9.67969 7.70315H9.67773L9.67481 7.70118L9.66504 7.69725L9.66113 7.69528C9.65793 7.69411 9.65467 7.69313 9.65137 7.69233H9.64941L9.64648 7.69135L9.6377 7.68938H9.63184L9.62891 7.68839H9.625L9.62305 7.68741H9.0625C9.02226 7.68741 8.98366 7.70344 8.95512 7.73202C8.92658 7.76059 8.91041 7.79938 8.91016 7.83992V11.2699C8.91016 11.3545 8.97852 11.4224 9.0625 11.4224H9.60938C9.69434 11.4224 9.7627 11.3535 9.7627 11.2699V9.23315L11.3252 11.3584C11.3356 11.3731 11.3485 11.3857 11.3633 11.3958L11.3643 11.3968L11.374 11.4027L11.3779 11.4047C11.3804 11.4062 11.3831 11.4075 11.3857 11.4086L11.3926 11.4116L11.3975 11.4135C11.4007 11.4146 11.4039 11.4156 11.4072 11.4165H11.4102C11.4229 11.4202 11.436 11.4221 11.4492 11.4224H11.9961C12.0811 11.4224 12.1494 11.3535 12.1494 11.2699V7.83893C12.1494 7.79823 12.1334 7.75918 12.1048 7.7304C12.0762 7.70161 12.0375 7.68544 11.9971 7.68544H11.4492ZM15.1748 8.39091V7.83992C15.1749 7.81976 15.1711 7.79978 15.1636 7.7811C15.156 7.76243 15.1449 7.74544 15.1309 7.73109C15.1168 7.71675 15.1001 7.70533 15.0817 7.6975C15.0632 7.68967 15.0434 7.68557 15.0234 7.68544H12.834C12.7946 7.68549 12.7567 7.70102 12.7285 7.72873L12.7266 7.7307L12.7246 7.73365C12.6973 7.76184 12.6819 7.79957 12.6816 7.83893V11.2689C12.6816 11.3092 12.6982 11.3476 12.7246 11.3742L12.7266 11.3771L12.7285 11.3791C12.7569 11.4064 12.7947 11.4216 12.834 11.4214H15.0234C15.1074 11.4214 15.1748 11.3525 15.1748 11.2679V10.7169C15.1749 10.6968 15.1711 10.6768 15.1636 10.6581C15.156 10.6394 15.1449 10.6224 15.1309 10.6081C15.1168 10.5937 15.1001 10.5823 15.0817 10.5745C15.0632 10.5667 15.0434 10.5626 15.0234 10.5624H13.5332V9.9829H15.0225C15.1064 9.9829 15.1738 9.91403 15.1738 9.82941V9.27841C15.174 9.25826 15.1701 9.23827 15.1626 9.2196C15.1551 9.20093 15.144 9.18393 15.1299 9.16959C15.1158 9.15524 15.0991 9.14383 15.0807 9.136C15.0623 9.12816 15.0425 9.12407 15.0225 9.12394H13.5332V8.54441H15.0225C15.1064 8.54441 15.1748 8.47553 15.1748 8.39091Z" fill="url(#paint0_linear_184_4870)"/>
<defs>
<linearGradient id="paint0_linear_184_4870" x1="3.25" y1="20.625" x2="18.3737" y2="20.6528" gradientUnits="userSpaceOnUse">
<stop stop-color="#CCA359"/>
<stop offset="0.592798" stop-color="#F4CB83"/>
<stop offset="1" stop-color="#9F7326"/>
</linearGradient>
</defs>
</svg>
