<svg width="20" height="20" viewBox="0 0 20 20" fill="none" xmlns="http://www.w3.org/2000/svg">
<g clip-path="url(#clip0_184_4863)">
<path d="M18.3332 6.2793V14.1668C18.3332 14.8045 18.0896 15.4181 17.6521 15.882C17.2146 16.346 16.6164 16.6252 15.9798 16.6626L15.8332 16.6668H4.1665C3.52883 16.6668 2.91524 16.4232 2.45129 15.9857C1.98733 15.5483 1.70808 14.95 1.67067 14.3135L1.6665 14.1668V6.2793L9.53734 11.5268L9.634 11.5818C9.74792 11.6375 9.87304 11.6664 9.99984 11.6664C10.1266 11.6664 10.2517 11.6375 10.3657 11.5818L10.4623 11.5268L18.3332 6.2793Z" fill="url(#paint0_linear_184_4863)"/>
<path d="M15.8334 3.33398C16.7334 3.33398 17.5226 3.80898 17.9626 4.52315L10.0001 9.83148L2.0376 4.52315C2.24654 4.18379 2.53361 3.89932 2.87485 3.69347C3.2161 3.48762 3.60162 3.36636 3.99926 3.33982L4.16676 3.33398H15.8334Z" fill="url(#paint1_linear_184_4863)"/>
</g>
<defs>
<linearGradient id="paint0_linear_184_4863" x1="2.99984" y1="18.4846" x2="19.1318" y2="18.5304" gradientUnits="userSpaceOnUse">
<stop stop-color="#CCA359"/>
<stop offset="0.592798" stop-color="#F4CB83"/>
<stop offset="1" stop-color="#9F7326"/>
</linearGradient>
<linearGradient id="paint1_linear_184_4863" x1="3.3116" y1="10.9685" x2="18.7255" y2="11.0353" gradientUnits="userSpaceOnUse">
<stop stop-color="#CCA359"/>
<stop offset="0.592798" stop-color="#F4CB83"/>
<stop offset="1" stop-color="#9F7326"/>
</linearGradient>
<clipPath id="clip0_184_4863">
<rect width="20" height="20" fill="white"/>
</clipPath>
</defs>
</svg>
