<svg width="20" height="20" viewBox="0 0 20 20" fill="none" xmlns="http://www.w3.org/2000/svg">
<path d="M10 7.768C9.55855 7.768 9.12702 7.8989 8.75997 8.14416C8.39292 8.38941 8.10684 8.73801 7.9379 9.14585C7.76897 9.5537 7.72476 10.0025 7.81089 10.4354C7.89701 10.8684 8.10959 11.2661 8.42174 11.5783C8.73389 11.8904 9.13159 12.103 9.56456 12.1891C9.99752 12.2752 10.4463 12.231 10.8541 12.0621C11.262 11.8932 11.6106 11.6071 11.8558 11.24C12.1011 10.873 12.232 10.4414 12.232 10C12.232 9.70689 12.1743 9.41665 12.0621 9.14585C11.9499 8.87505 11.7855 8.629 11.5783 8.42174C11.371 8.21448 11.1249 8.05007 10.8541 7.9379C10.5834 7.82573 10.2931 7.768 10 7.768ZM18.937 5.563C18.9323 4.86798 18.8043 4.17931 18.559 3.529C18.3784 3.05313 18.0989 2.62098 17.7389 2.26107C17.379 1.90115 16.9469 1.62165 16.471 1.441C15.8207 1.19572 15.132 1.06773 14.437 1.063C13.276 1 12.934 1 10 1C7.066 1 6.724 1 5.563 1.063C4.86798 1.06773 4.17931 1.19572 3.529 1.441C3.05313 1.62165 2.62098 1.90115 2.26107 2.26107C1.90115 2.62098 1.62165 3.05313 1.441 3.529C1.19572 4.17931 1.06773 4.86798 1.063 5.563C1 6.724 1 7.066 1 10C1 12.934 1 13.276 1.063 14.437C1.07269 15.1345 1.2005 15.8252 1.441 16.48C1.62085 16.9537 1.90012 17.3833 2.26 17.74C2.61837 18.1021 3.05145 18.3816 3.529 18.559C4.17931 18.8043 4.86798 18.9323 5.563 18.937C6.724 19 7.066 19 10 19C12.934 19 13.276 19 14.437 18.937C15.132 18.9323 15.8207 18.8043 16.471 18.559C16.9485 18.3816 17.3816 18.1021 17.74 17.74C18.0999 17.3833 18.3792 16.9537 18.559 16.48C18.804 15.8265 18.932 15.1349 18.937 14.437C19 13.276 19 12.934 19 10C19 7.066 19 6.724 18.937 5.563ZM16.651 12.763C16.6221 13.3184 16.5036 13.8655 16.3 14.383C16.1253 14.8147 15.8655 15.2069 15.5362 15.5362C15.2069 15.8655 14.8147 16.1253 14.383 16.3C13.8606 16.4922 13.3104 16.5986 12.754 16.615H7.246C6.68956 16.5986 6.13944 16.4922 5.617 16.3C5.17069 16.1341 4.76765 15.8696 4.438 15.526C4.1119 15.2031 3.86006 14.8131 3.7 14.383C3.507 13.8611 3.40355 13.3104 3.394 12.754V7.246C3.40355 6.68964 3.507 6.1389 3.7 5.617C3.86585 5.17069 4.13045 4.76765 4.474 4.438C4.7983 4.11366 5.18794 3.86208 5.617 3.7C6.13944 3.50777 6.68956 3.40139 7.246 3.385H12.754C13.3104 3.40139 13.8606 3.50777 14.383 3.7C14.8293 3.86585 15.2324 4.13045 15.562 4.474C15.8881 4.79687 16.1399 5.18692 16.3 5.617C16.4922 6.13944 16.5986 6.68956 16.615 7.246V10C16.615 11.854 16.678 12.043 16.651 12.754V12.763ZM15.211 6.067C15.1038 5.77629 14.9349 5.51228 14.7158 5.29319C14.4967 5.07411 14.2327 4.90516 13.942 4.798C13.5428 4.65963 13.1224 4.59261 12.7 4.6H7.3C6.87544 4.60415 6.45496 4.68337 6.058 4.834C5.77174 4.93629 5.51052 5.09834 5.29173 5.30938C5.07293 5.52042 4.90155 5.77561 4.789 6.058C4.6583 6.45883 4.59445 6.87844 4.6 7.3V12.7C4.60892 13.1241 4.68799 13.5437 4.834 13.942C4.94116 14.2327 5.11011 14.4967 5.32919 14.7158C5.54828 14.9349 5.81229 15.1038 6.103 15.211C6.487 15.3522 6.89109 15.4312 7.3 15.445H12.7C13.1246 15.4408 13.545 15.3616 13.942 15.211C14.2327 15.1038 14.4967 14.9349 14.7158 14.7158C14.9349 14.4967 15.1038 14.2327 15.211 13.942C15.3616 13.545 15.4408 13.1246 15.445 12.7V7.3C15.4453 6.87502 15.3659 6.45375 15.211 6.058V6.067ZM10 13.438C9.54894 13.438 9.10231 13.349 8.6857 13.1761C8.26908 13.0032 7.89067 12.7499 7.57214 12.4305C7.25361 12.1111 7.00122 11.732 6.82943 11.315C6.65764 10.8979 6.56982 10.4511 6.571 10C6.571 9.31964 6.77287 8.65459 7.15104 8.08902C7.52921 7.52345 8.06668 7.0828 8.69542 6.82285C9.32416 6.5629 10.0159 6.49535 10.683 6.62873C11.3502 6.76212 11.9628 7.09045 12.4432 7.57217C12.9237 8.05388 13.2504 8.66731 13.382 9.33481C13.5137 10.0023 13.4443 10.6939 13.1827 11.3219C12.9211 11.95 12.4791 12.4863 11.9125 12.863C11.3459 13.2397 10.6804 13.4398 10 13.438ZM13.6 7.237C13.401 7.21594 13.2169 7.122 13.0831 6.97327C12.9493 6.82455 12.8753 6.63156 12.8753 6.4315C12.8753 6.23144 12.9493 6.03845 13.0831 5.88973C13.2169 5.741 13.401 5.64706 13.6 5.626C13.799 5.64706 13.9831 5.741 14.1169 5.88973C14.2507 6.03845 14.3247 6.23144 14.3247 6.4315C14.3247 6.63156 14.2507 6.82455 14.1169 6.97327C13.9831 7.122 13.799 7.21594 13.6 7.237Z" fill="url(#paint0_linear_184_4882)"/>
<defs>
<linearGradient id="paint0_linear_184_4882" x1="2.44" y1="22.15" x2="19.8626" y2="22.1808" gradientUnits="userSpaceOnUse">
<stop stop-color="#CCA359"/>
<stop offset="0.592798" stop-color="#F4CB83"/>
<stop offset="1" stop-color="#9F7326"/>
</linearGradient>
</defs>
</svg>
