<svg width="20" height="20" viewBox="0 0 20 20" fill="none" xmlns="http://www.w3.org/2000/svg">
<path d="M10.375 1C15.5441 1 19.75 4.43822 19.75 8.66515C19.75 10.3571 19.0996 11.8802 17.7402 13.3809C15.7738 15.662 11.3758 18.4402 10.375 18.8653C9.40234 19.2785 9.51484 18.6327 9.55937 18.3777L9.56289 18.3564L9.69648 17.5476C9.72812 17.3068 9.76094 16.9325 9.66602 16.694C9.56055 16.4307 9.1457 16.2937 8.84102 16.2276C4.33516 15.629 1 12.454 1 8.66515C1 4.43822 5.20703 1 10.375 1ZM6.88516 10.0749H5.09805V6.80672C5.09805 6.75807 5.07895 6.7114 5.04492 6.67689C5.01089 6.64239 4.96469 6.62284 4.91641 6.62253H4.25781C4.23381 6.62253 4.21003 6.62729 4.18785 6.63655C4.16567 6.64581 4.14552 6.65937 4.12854 6.67648C4.11157 6.69358 4.0981 6.71389 4.08892 6.73623C4.07973 6.75858 4.075 6.78253 4.075 6.80672V10.9227C4.075 10.9711 4.09492 11.0171 4.12656 11.049L4.12891 11.0525L4.13125 11.0549C4.16523 11.0878 4.21066 11.1061 4.25781 11.1057H6.88516C6.98594 11.1057 7.0668 11.023 7.0668 10.9215V10.2603C7.06695 10.2361 7.06238 10.2121 7.05333 10.1897C7.04429 10.1673 7.03095 10.1469 7.01408 10.1297C6.99721 10.1125 6.97715 10.0988 6.95503 10.0894C6.93291 10.08 6.90916 10.0751 6.88516 10.0749ZM7.81211 6.62253C7.76362 6.62253 7.71713 6.64194 7.68284 6.67648C7.64856 6.71102 7.6293 6.75787 7.6293 6.80672V10.9227C7.6293 11.0242 7.71133 11.1057 7.81211 11.1057H8.4707C8.57148 11.1057 8.65234 11.023 8.65234 10.9227V6.80672C8.65235 6.75807 8.63325 6.7114 8.59922 6.67689C8.56518 6.64239 8.51898 6.62284 8.4707 6.62253H7.81211ZM12.3391 6.62253C12.2906 6.62253 12.2441 6.64194 12.2098 6.67648C12.1755 6.71102 12.1563 6.75787 12.1563 6.80672V9.25079L10.2848 6.70518C10.28 6.69898 10.2749 6.69307 10.2695 6.68747C10.2658 6.68334 10.2619 6.67821 10.2578 6.67448L10.2543 6.67094C10.2503 6.66707 10.246 6.66352 10.2414 6.66031L10.2344 6.65559L10.2309 6.65323C10.229 6.65185 10.2271 6.65067 10.225 6.64969L10.2156 6.64378H10.2133L10.2098 6.64142L10.198 6.6367L10.1934 6.63434C10.1895 6.63294 10.1856 6.63175 10.1816 6.6308H10.1793L10.1758 6.62961L10.1652 6.62725H10.1582L10.1547 6.62607H10.15L10.1477 6.62489H9.475C9.42672 6.62489 9.38039 6.64413 9.34614 6.67842C9.31189 6.71271 9.2925 6.75926 9.29219 6.8079V10.9238C9.29219 11.0254 9.37422 11.1069 9.475 11.1069H10.1312C10.2332 11.1069 10.3152 11.0242 10.3152 10.9238V8.47978L12.1902 11.0301C12.2027 11.0477 12.2182 11.0629 12.2359 11.075L12.2371 11.0762L12.2488 11.0832L12.2535 11.0856C12.2565 11.0874 12.2597 11.089 12.2629 11.0903L12.2711 11.0939L12.277 11.0962C12.2808 11.0975 12.2847 11.0987 12.2887 11.0998H12.2922C12.3074 11.1042 12.3232 11.1066 12.3391 11.1069H12.9953C13.0973 11.1069 13.1793 11.0242 13.1793 10.9238V6.80672C13.1793 6.75787 13.16 6.71102 13.1258 6.67648C13.0915 6.64194 13.045 6.62253 12.9965 6.62253H12.3391ZM16.8098 7.4691V6.8079C16.8099 6.78371 16.8053 6.75973 16.7963 6.73732C16.7873 6.71492 16.7739 6.69453 16.757 6.67731C16.7402 6.6601 16.7201 6.6464 16.698 6.637C16.6759 6.6276 16.6521 6.62268 16.6281 6.62253H14.0008C13.9535 6.62259 13.9081 6.64123 13.8742 6.67448L13.8719 6.67684L13.8695 6.68038C13.8368 6.71421 13.8183 6.75948 13.818 6.80672V10.9227C13.818 10.9711 13.8379 11.0171 13.8695 11.049L13.8719 11.0525L13.8742 11.0549C13.9083 11.0877 13.9537 11.1059 14.0008 11.1057H16.6281C16.7289 11.1057 16.8098 11.023 16.8098 10.9215V10.2603C16.8099 10.2361 16.8053 10.2121 16.7963 10.1897C16.7873 10.1673 16.7739 10.1469 16.757 10.1297C16.7402 10.1125 16.7201 10.0988 16.698 10.0894C16.6759 10.08 16.6521 10.0751 16.6281 10.0749H14.8398V9.37948H16.627C16.7277 9.37948 16.8086 9.29683 16.8086 9.19529V8.5341C16.8087 8.50991 16.8042 8.48592 16.7951 8.46352C16.7861 8.44111 16.7727 8.42072 16.7559 8.40351C16.739 8.38629 16.7189 8.3726 16.6968 8.3632C16.6747 8.3538 16.651 8.34888 16.627 8.34872H14.8398V7.65329H16.627C16.7277 7.65329 16.8098 7.57064 16.8098 7.4691Z" fill="url(#paint0_linear_184_4878)"/>
<defs>
<linearGradient id="paint0_linear_184_4878" x1="2.5" y1="22.15" x2="20.6485" y2="22.1834" gradientUnits="userSpaceOnUse">
<stop stop-color="#CCA359"/>
<stop offset="0.592798" stop-color="#F4CB83"/>
<stop offset="1" stop-color="#9F7326"/>
</linearGradient>
</defs>
</svg>
