<svg width="1049" height="281" viewBox="0 0 1049 281" fill="none" xmlns="http://www.w3.org/2000/svg">
<path d="M16.8307 253.222C19.2807 255.602 23.4507 258.923 29.2307 259.963C34.3507 260.883 38.5107 259.603 40.3007 259.053C81.5907 246.393 89.5007 245.843 91.5607 248.553C94.2107 252.033 89.7107 263.463 89.7107 263.463C92.7807 263.383 97.3907 263.073 102.861 261.963C110.721 260.373 113.891 258.433 120.181 256.343C128.011 253.743 144.961 248.132 150.721 254.502C153.121 257.152 154.231 262.613 155.831 270.403C156.361 272.983 156.511 274.382 157.711 275.642C160.981 279.052 168.211 277.332 173.181 275.642" stroke="white" stroke-width="5" stroke-miterlimit="10" stroke-linecap="round"/>
<path d="M222.771 41.6211V280.391" stroke="white" stroke-width="5" stroke-miterlimit="10"/>
<path d="M340.381 161.133C334.381 165.173 327.091 167.193 318.521 167.193C311.801 167.193 304.301 164.623 296.011 159.483L293.011 164.993H291.721V138.923H294.291C295.721 146.023 298.291 151.773 302.011 156.183C306.301 161.323 311.801 163.893 318.511 163.893C324.511 163.893 329.331 162.363 332.981 159.303C336.621 156.243 338.451 152.143 338.451 147.003C338.451 139.783 333.731 133.783 324.301 129.013C303.861 118.853 293.651 108.943 293.651 99.2726C293.651 95.9726 294.311 92.9126 295.621 90.0926C296.931 87.2826 298.751 84.8326 301.091 82.7526C303.421 80.6726 306.161 79.0526 309.301 77.8826C312.441 76.7226 315.941 76.1426 319.801 76.1426C326.801 76.1426 333.441 78.4726 339.731 83.1226L342.731 77.8026H344.021L344.881 100.933H342.091C340.231 94.8126 337.871 89.9826 335.021 86.4326C331.451 81.9026 326.661 79.6426 320.661 79.6426C315.801 79.6426 311.871 80.9926 308.871 83.6826C305.871 86.3726 304.371 89.8026 304.371 93.9626C304.371 100.333 312.051 107.063 327.411 114.153C335.511 118.073 341.351 122.113 344.911 126.273C348.751 130.683 350.671 135.763 350.671 141.513C350.671 149.813 347.241 156.363 340.381 161.133Z" fill="white"/>
<path d="M380.461 164.992L360.741 165.172V162.282L367.601 161.132C370.891 160.642 372.671 157.892 372.961 152.892V141.902V96.6621C372.961 89.9421 372.321 85.9121 371.031 84.5721C370.031 83.2321 366.531 82.0721 360.531 81.0921V78.1621L379.271 78.5321L399.541 78.1621V81.1021C397.251 81.1021 394.971 81.2821 392.681 81.6521C390.681 81.9021 389.391 82.6321 388.821 83.8521L387.531 86.9721C387.531 87.5821 387.491 88.1621 387.421 88.7121C387.351 89.2621 387.241 89.8421 387.101 90.4521L386.671 101.652V150.482C386.671 151.952 386.881 153.782 387.311 155.992C387.741 158.202 388.521 159.662 389.671 160.402C390.811 161.012 394.101 161.682 399.531 162.422V165.172L380.461 164.992Z" fill="white"/>
<path d="M491.481 142.593L492.121 156.733C487.851 156.733 483.161 157.833 478.041 160.033C466.671 164.803 457.931 167.193 451.811 167.193C440.301 167.193 430.271 163.213 421.751 155.263C417.201 150.853 414.001 146.203 412.151 141.313C411.581 139.723 410.941 136.843 410.231 132.683C409.941 131.093 409.731 129.503 409.591 127.913C409.451 126.323 409.381 124.733 409.381 123.143C409.381 110.173 413.451 99.2726 421.601 90.4626C430.311 80.9126 442.181 76.1426 457.181 76.1426C466.611 76.1426 475.181 78.8926 482.901 84.4026L485.471 78.3426H486.971L485.471 104.963H482.901C482.901 97.8626 480.761 91.9326 476.471 87.1526C471.471 82.0126 465.041 79.4426 457.181 79.4426C446.181 79.4426 437.961 83.9726 432.531 93.0226C428.101 100.493 425.891 110.093 425.891 121.843C425.891 132.853 427.601 141.913 431.031 149.013C435.891 158.923 443.891 163.883 455.041 163.883C470.181 163.883 477.761 157.453 477.761 144.603C477.761 139.953 476.971 136.833 475.401 135.243C474.111 133.533 471.111 132.673 466.401 132.673V129.563L484.001 129.743L500.271 129.563V132.683C494.141 132.683 491.211 135.983 491.481 142.593Z" fill="white"/>
<path d="M593.511 81.8312C592.511 82.2012 591.511 83.1813 590.511 84.7713L589.221 90.0913V91.3713C589.221 92.4713 589.081 93.6413 588.791 94.8613L588.361 108.261V167.011H584.721L565.641 143.411L524.061 92.9012V140.641C524.061 143.101 524.091 145.251 524.171 147.091C524.241 148.931 524.351 150.351 524.491 151.331C524.491 153.301 525.281 155.631 526.851 158.331C527.711 160.051 529.061 161.161 530.921 161.651C532.781 162.141 534.991 162.391 537.561 162.391V165.161L521.481 164.981L507.761 165.161V162.391C510.191 162.391 512.261 162.081 513.981 161.471C515.271 161.101 516.411 160.431 517.411 159.441C518.271 158.341 518.911 156.611 519.341 154.281C519.621 152.561 519.841 150.901 519.981 149.301C520.121 147.701 520.191 146.041 520.191 144.321V88.4813C518.051 85.4113 515.971 83.3812 513.971 82.4012C512.261 81.2912 509.541 80.7412 505.831 80.7412V77.7913L519.121 78.1613L528.761 77.7913L584.491 145.721V98.7212C584.491 97.5012 584.451 96.3613 584.381 95.3213C584.311 94.2813 584.201 93.3312 584.061 92.4712C584.061 89.4112 583.491 87.0312 582.351 85.3112C580.921 82.2512 577.281 80.7212 571.421 80.7212V77.7812L585.991 78.1512L600.141 77.7812V81.0112C597.011 81.0212 594.791 81.2912 593.511 81.8312Z" fill="white"/>
<path d="M679.461 164.992L659.531 165.172V162.422C660.241 162.302 661.141 162.212 662.211 162.142C663.281 162.082 664.531 161.932 665.961 161.682C668.391 161.072 669.601 159.602 669.601 157.272C669.601 154.462 668.741 150.722 667.031 146.072L662.101 133.402H629.521L624.591 145.522C622.881 149.812 622.021 153.352 622.021 156.172C622.021 158.622 623.231 160.332 625.661 161.312L632.731 162.412V165.162L618.151 164.982L604.431 165.162V162.412C606.431 162.042 608.431 161.492 610.431 160.762C611.721 160.272 613.141 158.992 614.721 156.902C617.861 152.372 621.511 144.912 625.651 134.502L648.151 75.752H652.441L683.951 153.962C685.811 158.612 690.241 161.432 697.241 162.402V165.152L679.461 164.992ZM645.801 91.742L631.011 129.372H660.371L645.801 91.742Z" fill="white"/>
<path d="M778.261 98.3523C778.261 91.7423 776.401 87.2123 772.691 84.7623C771.541 83.9123 769.481 83.2923 766.471 82.9223C764.901 82.6823 763.291 82.4623 761.651 82.2823C760.011 82.1023 758.401 82.0723 756.831 82.1923L752.121 82.3723C750.551 82.3723 749.371 82.5823 748.581 83.0123C747.791 83.4423 747.401 84.3923 747.401 85.8623V146.072C747.401 150.602 747.751 153.962 748.471 156.172C748.611 157.522 749.041 158.442 749.761 158.922C751.191 160.512 755.261 161.672 761.981 162.412V165.162L740.001 164.992L719.111 165.172V162.422C724.681 162.422 728.501 161.472 730.581 159.572C732.651 157.672 733.691 154.282 733.691 149.382V86.6023C733.691 83.9123 731.981 82.5623 728.551 82.5623H718.481C712.481 82.5623 708.481 83.4223 706.481 85.1323C703.761 87.4623 702.411 91.8623 702.411 98.3523H699.191V78.1523L707.761 78.5223L757.061 78.7023L780.641 78.1523L781.501 98.3423H778.261V98.3523Z" fill="white"/>
<path d="M873.221 82.3821C871.791 82.7521 870.571 84.0321 869.581 86.2321C869.291 87.0921 869.041 88.1021 868.831 89.2621C868.621 90.4221 868.361 91.7421 868.081 93.2121L867.871 105.142V132.682C867.871 155.692 856.151 167.192 832.721 167.192C809.861 167.192 798.431 157.032 798.431 136.722V96.7021C798.431 90.2121 797.791 86.2421 796.501 84.7721C795.501 83.3021 791.931 82.0821 785.781 81.1021V78.1621L804.641 78.5321L824.571 78.1621V81.1121C822.711 81.1121 820.641 81.3021 818.351 81.6621C816.211 81.9121 814.851 82.6521 814.281 83.8721C813.991 84.3621 813.491 85.5321 812.781 87.3721L812.141 90.5121L811.931 101.762V138.082C811.931 139.312 812.041 140.782 812.251 142.502C812.461 144.222 812.711 146.132 813.001 148.222C813.281 150.062 814.031 151.852 815.251 153.572C816.461 155.292 818.071 156.832 820.071 158.182C822.071 159.532 824.391 160.642 827.041 161.502C829.681 162.362 832.651 162.792 835.931 162.792C846.221 162.792 853.651 159.922 858.221 154.162C862.081 149.272 864.011 141.372 864.011 130.482V105.142L863.371 92.4721C863.231 88.3121 862.081 85.4921 859.941 84.0321C857.511 82.3221 854.221 81.4621 850.081 81.4621V78.5221L865.511 78.8921L880.301 78.5221V81.4621C877.001 81.4621 874.641 81.7721 873.221 82.3821Z" fill="white"/>
<path d="M962.811 164.991L951.241 165.171L921.231 128.091C919.231 125.891 916.371 124.791 912.661 124.791V150.491C912.661 151.961 912.871 153.791 913.301 156.001C913.731 158.201 914.511 159.671 915.661 160.411C916.801 161.021 920.091 161.691 925.521 162.431V165.181L906.441 165.001L886.721 165.181V162.291L893.581 161.141C896.871 160.651 898.651 157.901 898.941 152.881V141.861V96.5115C898.941 89.7815 898.301 85.7415 897.011 84.3915C896.011 83.0415 892.511 81.8815 886.511 80.9015V77.9615L905.831 78.3315L928.851 77.7815C936.741 77.6615 943.191 79.3115 948.211 82.7415C953.661 86.4115 956.381 92.3515 956.381 100.551C956.381 107.041 953.951 112.181 949.091 115.971C944.941 119.151 939.441 121.291 932.591 122.401L961.101 155.631C962.531 157.351 964.241 158.811 966.241 160.041C967.951 160.901 970.241 161.651 973.101 162.291V165.181L962.811 164.991ZM936.011 86.6015C932.441 83.1815 926.511 81.4615 918.221 81.4615L914.581 81.8315C913.291 82.2015 912.651 83.3615 912.651 85.3215V121.661C921.941 121.661 928.581 120.681 932.581 118.721C938.291 116.031 941.151 111.131 941.151 104.031C941.161 95.9615 939.441 90.1515 936.011 86.6015Z" fill="white"/>
<path d="M1048.65 146.811C1048.58 147.911 1048.54 149.081 1048.54 150.301C1048.54 151.401 1048.5 152.501 1048.43 153.601C1048.36 154.701 1048.32 155.621 1048.32 156.351C1048.32 161.491 1048.18 164.431 1047.89 165.161H976.091V162.271L982.951 161.121C986.241 160.631 988.021 157.871 988.311 152.841V141.801V96.371C988.311 89.621 987.671 85.581 986.381 84.231C985.381 82.881 981.881 81.711 975.881 80.731V77.791H1041.25V97.801H1038.46C1037.17 91.311 1035.1 87.031 1032.24 84.951C1029.38 82.871 1024.17 81.831 1016.59 81.831H1003.94C1002.65 81.831 1002.01 82.931 1002.01 85.131V118.171C1016.17 118.171 1023.26 112.731 1023.26 101.831H1026.23V104.221L1025.8 118.171L1026.44 136.341H1023.44C1022.58 130.221 1020.3 126.121 1016.58 124.041C1013.72 122.571 1008.86 121.841 1002 121.841V145.151C1002 151.151 1003.14 155.311 1005.43 157.631C1008 160.321 1012.64 161.671 1019.36 161.671C1028.07 161.671 1034.43 160.631 1038.44 158.551C1043.16 155.861 1045.51 151.021 1045.51 144.051H1048.72C1048.76 144.801 1048.72 145.711 1048.65 146.811Z" fill="white"/>
<path d="M291.721 190.631H1048.76" stroke="white" stroke-width="4" stroke-miterlimit="10"/>
<path d="M323.491 227.312C322.951 225.392 322.231 223.412 321.571 222.332C320.611 220.712 320.011 220.292 316.711 220.292H310.711V249.512C310.711 254.192 311.191 254.852 316.891 255.212V256.892H299.431V255.212C305.011 254.852 305.491 254.252 305.491 249.512V220.292H300.031C296.731 220.292 295.771 220.652 294.751 222.452C294.031 223.652 293.551 225.092 292.771 227.312H290.971C291.331 223.652 291.691 219.872 291.871 216.512H293.251C294.151 217.952 294.811 217.892 296.491 217.892H320.251C321.931 217.892 322.411 217.652 323.311 216.512H324.751C324.751 219.332 324.991 223.652 325.291 227.132L323.491 227.312Z" fill="white"/>
<path d="M386.971 219.573C381.991 220.053 381.511 220.353 381.511 225.393V249.453C381.511 254.493 382.051 254.673 386.971 255.213V256.893H370.891V255.213C375.871 254.613 376.351 254.493 376.351 249.453V237.453H355.831V249.453C355.831 254.433 356.311 254.613 361.231 255.213V256.893H345.211V255.213C350.071 254.673 350.611 254.493 350.611 249.453V225.393C350.611 220.353 350.071 220.053 345.211 219.573V217.893H361.231V219.573C356.431 219.993 355.831 220.413 355.831 225.393V234.933H376.351V225.393C376.351 220.413 375.691 219.993 370.891 219.573V217.893H386.971V219.573Z" fill="white"/>
<path d="M429.211 256.881V255.201C433.111 254.721 433.591 254.121 432.751 251.841C431.971 249.501 430.771 246.501 429.511 242.721H416.551C415.591 245.421 414.691 247.761 413.851 250.221C412.531 254.121 413.371 254.601 418.291 255.201V256.881H404.431V255.201C408.211 254.721 409.171 254.301 411.271 248.901L423.691 217.401L425.611 217.041C429.391 227.301 433.531 238.641 437.311 249.021C439.231 254.241 439.771 254.721 444.031 255.201V256.881H429.211ZM423.211 224.911C421.291 230.071 419.251 235.531 417.451 240.271H428.671L423.211 224.911Z" fill="white"/>
<path d="M461.431 256.881V255.201C466.351 254.661 466.831 254.421 466.831 249.321V225.501C466.831 220.341 466.351 220.101 461.431 219.561V217.881H477.511V219.561C472.531 220.101 472.051 220.341 472.051 225.501V249.321C472.051 254.481 472.531 254.661 477.511 255.201V256.881H461.431Z" fill="white"/>
<path d="M528.691 246.921C528.331 248.781 526.531 255.021 525.931 256.881H498.031V255.201C503.491 254.661 503.971 254.361 503.971 249.261V225.441C503.971 220.341 503.371 220.041 498.571 219.561V217.881H514.651V219.561C509.851 220.041 509.191 220.281 509.191 225.441V249.861C509.191 253.521 509.671 254.361 513.091 254.421C513.151 254.421 517.471 254.481 517.831 254.481C520.891 254.481 521.791 254.121 523.171 252.621C524.671 251.061 525.931 248.661 526.831 246.441L528.691 246.921Z" fill="white"/>
<path d="M571.591 256.881V255.201C575.491 254.721 575.971 254.121 575.131 251.841C574.351 249.501 573.151 246.501 571.891 242.721H558.931C557.971 245.421 557.071 247.761 556.231 250.221C554.911 254.121 555.751 254.601 560.671 255.201V256.881H546.811V255.201C550.591 254.721 551.551 254.301 553.651 248.901L566.071 217.401L567.991 217.041C571.771 227.301 575.911 238.641 579.691 249.021C581.611 254.241 582.151 254.721 586.411 255.201V256.881H571.591ZM565.591 224.911C563.671 230.071 561.631 235.531 559.831 240.271H571.051L565.591 224.911Z" fill="white"/>
<path d="M645.271 219.573C641.431 219.993 640.171 220.593 639.991 223.353C639.931 225.273 639.811 227.793 639.811 233.373V257.433H637.531L611.851 226.053V241.053C611.851 246.453 612.031 249.153 612.151 250.893C612.271 253.953 613.771 254.853 618.091 255.213V256.893H603.511V255.213C607.231 254.913 608.671 254.013 608.911 251.073C609.091 249.153 609.211 246.453 609.211 240.993V225.693C609.211 224.013 609.091 223.053 608.011 221.733C606.871 220.233 605.611 219.873 602.671 219.573V217.893H611.671L637.111 248.073V233.373C637.111 227.793 636.991 225.213 636.811 223.413C636.631 220.713 635.251 219.873 630.451 219.573V217.893H645.271V219.573Z" fill="white"/>
<path d="M681.741 217.893C690.201 217.893 695.541 219.573 699.261 223.113C702.201 225.993 704.361 230.193 704.361 235.953C704.361 242.973 701.481 248.673 696.861 252.153C692.301 255.573 686.481 256.893 679.101 256.893H665.061V255.213C670.221 254.733 670.461 254.313 670.461 249.393V225.453C670.461 220.293 669.741 220.053 665.061 219.573V217.893H681.741ZM675.691 248.903C675.691 253.403 677.611 254.663 682.111 254.663C692.911 254.663 698.431 247.283 698.431 236.783C698.431 230.243 696.211 225.263 691.471 222.383C688.711 220.643 685.231 219.983 681.211 219.983C678.511 219.983 677.071 220.343 676.471 220.823C675.931 221.183 675.691 221.843 675.691 224.183V248.903Z" fill="white"/>
<path d="M115.611 137.892C118.201 134.282 121.701 129.422 123.371 127.092C127.581 121.232 133.291 113.272 138.401 106.172C140.771 102.882 144.001 98.3821 145.581 96.1721C147.171 93.9521 150.621 89.1521 153.261 85.4821C155.341 82.5921 157.331 79.8221 159.371 76.9821L111.751 42.1621C108.371 46.8621 104.111 52.7921 99.5607 59.1121C97.3407 62.2021 94.1807 66.6021 92.5407 68.8821C90.9007 71.1621 87.3007 76.1721 84.5307 80.0321C81.7607 83.8821 77.9807 89.1321 76.1507 91.7021C67.7007 103.442 65.0507 107.152 60.5707 113.362C50.7007 127.072 50.7207 127.052 50.0907 128.862C49.7207 129.942 49.2607 132.712 49.2707 133.802C49.3307 137.242 50.8507 140.842 53.2507 143.232C53.9507 143.922 57.5707 146.592 66.0307 152.652C68.3107 154.292 72.6907 157.432 75.7507 159.632C78.8207 161.832 81.7507 163.852 82.2707 164.122C84.7507 165.382 88.1007 165.882 90.8607 165.392C93.7307 164.892 96.4607 163.502 98.3607 161.582C99.0607 160.872 101.361 157.742 107.831 148.712C109.511 146.342 113.021 141.482 115.611 137.892Z" fill="white" stroke="white" stroke-miterlimit="10"/>
<path d="M50.3107 153.412C50.2207 153.492 49.4007 154.352 48.4807 155.332C42.9507 161.172 35.6107 168.142 29.4507 173.432C23.0507 178.932 18.2007 182.742 11.1207 187.862C8.65074 189.652 6.62074 191.152 6.61074 191.192C6.60074 191.242 6.84074 191.752 7.11074 192.342C8.67074 195.492 9.86074 199.582 10.3207 203.352C10.4907 204.792 10.6607 207.912 10.6307 209.192C10.5207 213.722 9.77074 218.562 8.37074 223.712C6.83074 229.352 4.34074 236.132 0.880736 244.102C0.370736 245.252 -0.019264 246.202 0.00073597 246.232C0.010736 246.242 1.79074 243.802 3.96074 240.782C6.13074 237.772 9.95074 232.452 12.4407 228.982C21.0507 217.012 24.5107 212.192 27.1707 208.482L29.8307 204.752L29.3707 204.082C28.7707 203.212 28.5707 202.732 28.3907 201.852C27.7607 198.572 30.0507 195.552 33.3807 195.262C35.3007 195.092 37.1307 195.922 38.3307 197.522C39.0907 198.532 39.4507 199.582 39.5107 200.892C39.5507 201.812 39.5207 201.982 39.1907 202.832C38.7807 203.932 38.2807 204.582 37.2807 205.342C35.9207 206.362 33.7107 206.742 32.1907 206.202C31.8307 206.062 31.5107 205.972 31.4807 205.992C31.4507 206.012 29.7707 208.342 27.7307 211.192C22.5007 218.482 17.4407 225.522 12.5307 232.342C5.47074 242.172 1.67074 247.472 1.66074 247.552C1.65074 247.592 1.94074 247.342 2.30074 247.012C2.65074 246.672 3.52074 245.872 4.23074 245.232C4.94074 244.592 5.65074 243.942 5.82074 243.772C6.45074 243.172 9.94074 240.182 11.9407 238.532C13.9007 236.912 19.7107 232.672 21.6107 231.442C28.2807 227.172 35.0307 224.492 41.3507 223.592C44.1907 223.202 47.3407 223.152 50.0907 223.472L51.7507 223.672L51.8707 223.352C51.9407 223.182 52.2007 222.352 52.4507 221.502C52.7107 220.652 52.9607 219.802 53.0207 219.602C56.1607 209.502 59.4407 200.532 63.1907 191.842C64.4607 188.902 65.6707 186.192 66.1607 185.132C66.3207 184.802 66.8107 183.762 67.2607 182.812C69.0407 179.042 72.9707 171.312 73.6707 170.152C73.7407 170.062 72.5507 169.142 70.3907 167.602C68.5407 166.272 63.3007 162.512 58.7607 159.242C54.2107 155.972 50.4807 153.292 50.4707 153.292C50.4607 153.282 50.3807 153.342 50.3107 153.412Z" fill="white"/>
<path d="M166.397 70.0681C171.532 63.1222 174.015 59.7637 177.652 54.8529C187.877 41.0435 187.859 41.068 188.531 39.2283C188.924 38.1342 189.432 35.3219 189.441 34.2047C189.434 30.692 187.963 27.0057 185.561 24.5273C184.87 23.8119 181.244 21.0262 172.775 14.7192C170.494 13.0101 166.117 9.74198 163.04 7.44786C159.971 5.15405 157.028 3.04996 156.505 2.76942C154.016 1.44737 150.631 0.880826 147.832 1.33669C144.917 1.80488 142.133 3.16882 140.172 5.10202C139.452 5.81389 137.068 8.96613 130.364 18.0703C128.628 20.4322 125 25.3266 122.314 28.9547C120.966 30.7853 119.373 32.9342 117.902 34.9198L166.397 70.0681Z" fill="white" stroke="white" stroke-miterlimit="10"/>
</svg>
